<?xml version="1.0" standalone="no"?>
<!DOCTYPE svg PUBLIC "-//W3C//DTD SVG 20010904//EN"
 "http://www.w3.org/TR/2001/REC-SVG-20010904/DTD/svg10.dtd">
<svg version="1.0" xmlns="http://www.w3.org/2000/svg"
 width="398.000000pt" height="394.000000pt" viewBox="0 0 398.000000 394.000000"
 preserveAspectRatio="xMidYMid meet">

<g transform="translate(0.000000,394.000000) scale(0.100000,-0.100000)"
fill="#000000" stroke="none">
<path d="M0 1970 l0 -1970 1990 0 1990 0 0 1970 0 1970 -1990 0 -1990 0 0
-1970z m3760 15 l0 -1755 -1775 0 -1775 0 0 1755 0 1755 1775 0 1775 0 0
-1755z"/>
<path d="M1583 2887 c-85 -26 -100 -37 -50 -37 26 0 39 -6 47 -19 12 -23 13
-555 1 -585 -4 -11 -23 -25 -42 -32 -30 -11 -20 -13 91 -13 109 0 121 2 90 12
-23 8 -37 20 -41 37 -4 14 -7 168 -8 343 -1 174 -4 317 -8 316 -5 0 -40 -10
-80 -22z"/>
<path d="M2788 2882 c-64 -19 -83 -32 -47 -32 54 0 54 3 57 -298 2 -170 -1
-289 -7 -305 -7 -17 -21 -29 -43 -35 -27 -8 -12 -10 75 -13 59 -2 116 -1 125
3 14 6 14 7 -3 7 -11 1 -31 8 -43 17 -20 14 -22 23 -22 115 0 54 3 99 8 99 8
-1 162 -203 162 -213 0 -4 -10 -12 -22 -17 -16 -6 15 -9 97 -9 l120 -1 -40 19
c-22 10 -58 38 -81 62 -54 58 -164 198 -164 209 0 4 34 37 75 72 50 41 93 69
128 80 l52 17 -110 -1 c-60 0 -99 -3 -86 -7 27 -7 35 -20 23 -36 -12 -17 -148
-135 -155 -135 -4 0 -7 95 -7 210 0 239 8 221 -92 192z"/>
<path d="M800 2881 c0 -5 14 -11 32 -15 69 -14 68 -8 68 -320 0 -304 -4 -326
-53 -326 -12 0 -29 -5 -37 -10 -10 -6 61 -10 211 -10 l225 0 54 28 c84 42 116
104 100 194 -9 48 -58 99 -117 120 -18 7 -33 14 -33 18 0 3 18 12 39 21 74 32
101 120 62 203 -26 53 -75 81 -167 96 -74 12 -384 13 -384 1z m393 -56 c46
-22 67 -59 67 -120 0 -89 -50 -125 -175 -125 l-75 0 0 128 c0 71 3 132 8 136
12 13 136 0 175 -19z m-71 -295 c115 -18 159 -58 160 -145 2 -96 -48 -141
-166 -152 -105 -10 -106 -9 -106 162 l0 145 28 0 c15 0 53 -4 84 -10z"/>
<path d="M1934 2670 c-45 -14 -94 -63 -94 -93 0 -42 10 -57 40 -57 37 0 53 22
45 60 -10 45 16 70 70 70 62 0 78 -17 83 -87 l4 -59 -48 -19 c-158 -59 -214
-108 -214 -189 0 -40 5 -53 30 -78 28 -28 35 -30 83 -26 38 3 66 13 99 36 44
30 47 31 53 12 17 -52 66 -64 123 -30 41 25 43 48 2 42 -43 -6 -50 22 -50 191
0 153 -6 176 -52 210 -32 24 -124 32 -174 17z m141 -367 c-3 -13 -19 -29 -35
-38 -68 -35 -130 -5 -130 64 0 51 27 83 103 121 l62 31 3 -78 c2 -43 0 -88 -3
-100z"/>
<path d="M2436 2665 c-56 -20 -107 -65 -136 -121 -21 -40 -25 -63 -25 -129 0
-86 14 -123 60 -170 38 -37 80 -56 128 -57 81 -1 129 26 182 105 43 63 35 82
-12 28 -64 -75 -159 -80 -223 -12 -99 104 -69 296 51 332 55 17 85 2 99 -49
13 -49 30 -64 67 -60 24 2 29 8 31 36 3 26 -3 39 -28 62 -51 48 -122 61 -194
35z"/>
<path d="M1537 1623 c-11 -11 -8 -173 3 -173 6 0 13 8 16 18 30 95 50 110 157
119 l68 6 -3 -302 c-3 -286 -4 -303 -22 -317 -11 -8 -30 -14 -42 -14 -13 0
-26 -4 -29 -10 -4 -7 49 -10 152 -9 148 0 170 6 90 24 -17 3 -31 15 -38 31 -5
16 -8 141 -7 308 l3 281 67 -1 c92 -3 119 -18 142 -82 10 -28 22 -52 27 -52 5
0 9 41 9 90 l0 90 -293 0 c-162 0 -297 -3 -300 -7z"/>
<path d="M2170 1622 c0 -5 19 -12 42 -18 68 -15 69 -19 66 -337 -3 -263 -4
-279 -22 -293 -11 -8 -32 -14 -47 -14 -15 0 -31 -4 -34 -10 -4 -7 48 -10 150
-10 102 0 154 3 150 10 -3 6 -16 10 -29 10 -12 0 -31 6 -42 14 -18 14 -19 30
-22 293 -3 313 -1 322 61 337 72 18 36 26 -118 26 -85 0 -155 -4 -155 -8z"/>
</g>
</svg>
