<?xml version="1.0" standalone="no"?>
<!DOCTYPE svg PUBLIC "-//W3C//DTD SVG 20010904//EN"
 "http://www.w3.org/TR/2001/REC-SVG-20010904/DTD/svg10.dtd">
<svg version="1.0" xmlns="http://www.w3.org/2000/svg"
 width="1658.000000pt" height="1642.000000pt" viewBox="0 0 1658.000000 1642.000000"
 preserveAspectRatio="xMidYMid meet">

<g transform="translate(0.000000,1642.000000) scale(0.100000,-0.100000)"
fill="#000000" stroke="none">
<path d="M0 8210 l0 -8210 8290 0 8290 0 0 8210 0 8210 -8290 0 -8290 0 0
-8210z m15660 65 l0 -7315 -7395 0 -7395 0 0 7308 c0 4020 3 7312 7 7315 3 4
3331 7 7395 7 l7388 0 0 -7315z"/>
<path d="M6240 13206 c-260 -76 -414 -128 -498 -168 -94 -44 -73 -65 70 -67
147 -2 224 -34 254 -106 31 -74 39 -399 39 -1535 0 -1146 -7 -1386 -40 -1450
-31 -60 -115 -119 -250 -175 -84 -35 -30 -40 460 -43 446 -3 570 2 567 23 -1
6 -37 25 -80 43 -127 53 -173 101 -192 201 -17 88 -30 666 -40 1761 -9 979
-22 1516 -36 1563 -3 9 -13 17 -22 16 -9 0 -114 -29 -232 -63z"/>
<path d="M12505 13214 c-94 -25 -425 -129 -483 -152 -156 -64 -155 -84 4 -93
121 -7 146 -19 182 -90 57 -115 74 -493 75 -1734 1 -922 -5 -1144 -34 -1249
-6 -21 -31 -60 -56 -87 -41 -44 -95 -73 -208 -113 -67 -24 134 -42 566 -52
297 -6 469 3 521 26 37 17 26 30 -27 30 -92 0 -253 83 -295 152 -34 56 -41
148 -41 498 0 303 10 484 26 510 3 6 10 10 15 10 41 0 820 -1030 820 -1084 0
-10 -28 -34 -66 -58 l-67 -42 29 -9 c16 -5 193 -12 394 -17 505 -12 690 -12
690 0 0 6 -5 10 -11 10 -6 0 -67 28 -137 62 -219 107 -383 247 -627 533 -225
263 -515 634 -619 792 l-48 72 28 36 c49 64 357 338 509 452 228 172 356 241
587 318 88 29 155 55 151 57 -15 6 -908 -10 -940 -17 -18 -4 -33 -10 -33 -14
0 -3 22 -14 49 -24 50 -17 101 -65 101 -94 0 -38 -42 -93 -149 -193 -248 -232
-637 -560 -665 -560 -9 0 -16 21 -20 68 -10 93 -24 1043 -18 1248 5 216 -13
632 -31 703 -19 70 -52 102 -108 106 -24 2 -53 1 -64 -1z"/>
<path d="M2270 13159 c-133 -9 -179 -18 -181 -34 -4 -20 66 -49 182 -77 187
-44 227 -73 267 -193 44 -130 47 -234 47 -1425 0 -1185 -4 -1301 -46 -1480
-22 -94 -54 -152 -97 -174 -16 -8 -72 -19 -125 -25 -58 -6 -115 -18 -144 -31
-45 -20 -46 -23 -25 -31 59 -22 363 -31 1257 -35 l950 -5 181 94 c195 101 288
159 372 233 108 95 194 234 233 379 31 113 31 334 0 450 -38 141 -110 256
-235 372 -109 102 -195 155 -371 228 -98 40 -155 72 -155 85 0 5 71 44 158 87
147 72 163 83 243 163 143 143 201 286 202 500 0 130 -16 218 -63 335 -142
356 -478 525 -1145 575 -183 14 -1344 21 -1505 9z m1380 -215 c154 -18 327
-56 411 -90 247 -100 370 -308 369 -623 -2 -342 -139 -519 -463 -596 -136 -32
-294 -45 -576 -45 l-233 0 5 618 c5 584 11 710 36 735 28 28 216 29 451 1z
m-135 -1574 c636 -84 890 -215 989 -511 25 -72 29 -105 34 -232 3 -93 0 -175
-8 -225 -33 -209 -140 -359 -323 -453 -159 -82 -464 -141 -742 -143 -111 -1
-125 1 -170 25 -36 18 -57 37 -74 69 -54 96 -54 103 -58 824 l-4 669 138 -6
c76 -4 174 -11 218 -17z"/>
<path d="M8005 12079 c-209 -27 -433 -169 -551 -350 -55 -84 -65 -128 -54
-236 11 -102 34 -150 86 -181 34 -20 50 -22 124 -20 103 4 151 25 195 87 29
41 30 46 26 134 -8 217 -7 251 13 290 25 50 95 103 165 125 78 23 304 23 381
0 106 -33 167 -110 195 -247 13 -59 49 -471 43 -476 -2 -2 -68 -28 -148 -60
-328 -129 -402 -160 -555 -235 -437 -215 -614 -419 -632 -730 -12 -208 22
-303 155 -436 121 -121 161 -139 307 -137 144 2 287 26 388 65 90 34 124 53
272 150 120 79 168 103 190 95 9 -4 25 -28 36 -54 39 -93 54 -119 105 -168 60
-60 125 -85 221 -85 134 0 298 69 404 169 48 46 59 62 59 89 0 44 -27 53 -150
50 -87 -3 -102 -1 -127 18 -96 71 -122 253 -123 859 -1 610 -23 842 -91 977
-37 74 -138 174 -218 216 -152 82 -470 122 -716 91z m591 -1035 c4 -20 7 -215
8 -433 1 -444 0 -451 -65 -525 -56 -63 -115 -102 -212 -139 -73 -28 -94 -31
-192 -31 -104 -1 -114 1 -176 31 -166 82 -241 268 -194 486 29 136 133 267
295 373 67 44 505 273 522 274 4 0 10 -16 14 -36z"/>
<path d="M10617 12075 c-303 -61 -578 -239 -769 -499 -74 -101 -171 -296 -200
-401 -21 -74 -22 -103 -23 -400 0 -333 3 -367 47 -505 76 -239 307 -490 555
-601 131 -59 211 -74 393 -73 144 1 177 4 261 26 161 44 290 120 418 249 168
169 381 513 342 552 -19 19 -61 -13 -201 -154 -139 -141 -182 -175 -285 -227
-218 -109 -464 -100 -677 25 -132 78 -302 277 -373 438 -213 485 -83 1081 289
1319 113 72 298 123 401 111 28 -3 73 -17 102 -31 83 -40 129 -110 180 -274
70 -222 135 -285 293 -283 159 2 192 36 198 201 4 94 2 106 -22 156 -32 66
-146 177 -252 246 -88 58 -208 106 -312 126 -91 17 -274 17 -365 -1z"/>
<path d="M6230 6730 c-316 -9 -377 -15 -391 -42 -22 -41 -33 -332 -21 -557 12
-212 21 -284 40 -303 6 -6 21 1 39 16 24 20 40 53 72 147 118 343 219 442 511
498 108 20 597 67 607 57 8 -8 -16 -2276 -27 -2606 -11 -299 -26 -445 -53
-497 -32 -60 -135 -110 -246 -119 -83 -7 -124 -19 -146 -44 -16 -18 -15 -19
25 -30 102 -28 717 -38 1137 -20 203 9 293 21 293 39 0 13 -65 37 -163 60
-112 27 -155 45 -195 84 -60 58 -72 87 -83 204 -15 173 -22 1210 -14 2087 l7
809 252 -6 c288 -7 427 -24 531 -68 128 -53 205 -144 275 -324 54 -139 101
-241 125 -270 22 -29 22 -29 34 -8 21 41 31 209 31 556 l0 347 -1192 -2 c-656
-1 -1308 -4 -1448 -8z"/>
<path d="M9310 6730 c-141 -9 -218 -19 -225 -30 -12 -20 90 -60 280 -110 44
-12 98 -33 120 -48 77 -53 117 -174 135 -405 12 -158 12 -1398 0 -1956 -13
-594 -27 -716 -87 -773 -50 -48 -173 -88 -269 -88 -62 0 -129 -18 -149 -40
-16 -18 -15 -19 22 -29 76 -21 322 -31 733 -31 410 0 657 10 733 31 33 9 37
12 26 25 -22 26 -47 35 -134 45 -107 12 -205 50 -244 94 -58 67 -67 169 -82
939 -13 697 -7 1759 11 1886 15 108 44 207 73 251 32 48 79 76 176 105 163 48
216 68 219 86 8 41 -221 58 -783 56 -236 -1 -486 -4 -555 -8z"/>
</g>
</svg>
